<svg width="1440px" height="1146px" viewBox="0 0 1440 1146" version="1.1" xmlns="http://www.w3.org/2000/svg" xmlns:xlink="http://www.w3.org/1999/xlink">
    <g id="bg-shapes" class="bg-shapes" fill="currentColor" transform="translate(-11.000000, 139.000000)">
        <polygon id="Rectangle-2" transform="translate(121.299106, 535.299106) rotate(-165.000000) translate(-121.299106, -535.299106) " points="173.799106 482.799106 173.799106 587.799106 68.7991057 587.799106"></polygon>
        <polygon id="Rectangle-2-Copy-5" transform="translate(919.937117, 594.500000) rotate(-165.000000) translate(-919.937117, -594.500000) " points="972.437117 542 972.437117 647 867.437117 647"></polygon>
        <polygon id="Rectangle-2-Copy-3" transform="translate(945.690716, 929.690716) rotate(-77.000000) translate(-945.690716, -929.690716) " points="1044.29116 831.090268 1044.29116 1028.29116 847.090268 1028.29116"></polygon>
        <circle id="Oval-2" cx="154.5" cy="187.5" r="30.5"></circle>
        <ellipse id="Oval-2-Copy-8" cx="656.887868" cy="770.5" rx="30.5" ry="30.5"></ellipse>
        <circle id="Oval-2-Copy-5" cx="250.575169" cy="829.5" r="45.5"></circle>
        <circle id="Oval-2-Copy-3" cx="1443.5" cy="56.5" r="22.5"></circle>
        <ellipse id="Oval-2-Copy-7" cx="1138.93114" cy="691.5" rx="22.5" ry="22.5"></ellipse>
        <circle id="Oval-2-Copy-4" cx="1204" cy="57" r="57"></circle>
        <circle id="Oval-2-Copy" cx="155" cy="561" r="13"></circle>
        <circle id="Oval-2-Copy-6" cx="953.638011" cy="620.200894" r="13"></circle>
        <circle id="Oval-2-Copy-2" cx="13" cy="522" r="13"></circle>
        <polygon id="Rectangle-2-Copy" transform="translate(1351.276821, 157.276821) rotate(-60.000000) translate(-1351.276821, -157.276821) " points="1376.36919 132.184446 1376.36919 182.369195 1326.18445 182.369195"></polygon>
        <polygon id="Rectangle-2-Copy-6" transform="translate(1046.707957, 792.276821) rotate(-60.000000) translate(-1046.707957, -792.276821) " points="1071.80033 767.184446 1071.80033 817.369195 1021.61558 817.369195"></polygon>
        <polygon id="Rectangle-2-Copy-2" transform="translate(1401.276821, 320.276821) rotate(-300.000000) translate(-1401.276821, -320.276821) " points="1426.36919 295.184446 1426.36919 345.369195 1376.18445 345.369195"></polygon>
        <polygon id="Rectangle-2-Copy-7" transform="translate(1096.707957, 955.276821) rotate(-300.000000) translate(-1096.707957, -955.276821) " points="1121.80033 930.184446 1121.80033 980.369195 1071.61558 980.369195"></polygon>
        <polygon id="Rectangle-2-Copy-4" transform="translate(561.756143, 797.756143) rotate(-57.000000) translate(-561.756143, -797.756143) " points="571.826338 787.685947 571.826338 807.826338 551.685947 807.826338"></polygon>
        <rect id="Rectangle-3" transform="translate(1317.305087, 470.305087) rotate(-315.000000) translate(-1317.305087, -470.305087) " x="1288.80509" y="441.805087" width="57" height="57"></rect>
        <rect id="Rectangle-3-Copy-7" transform="translate(1012.736223, 1105.305087) rotate(-315.000000) translate(-1012.736223, -1105.305087) " x="984.236223" y="1076.80509" width="57" height="57"></rect>
        <rect id="Rectangle-3-Copy" transform="translate(66.305087, 754.305087) rotate(-315.000000) translate(-66.305087, -754.305087) " x="37.8050865" y="725.805087" width="57" height="57"></rect>
        <rect id="Rectangle-3-Copy-2" transform="translate(56.152543, 233.152543) rotate(-315.000000) translate(-56.152543, -233.152543) " x="45.4380772" y="222.438077" width="21.4289322" height="21.4289322"></rect>
        <rect id="Rectangle-3-Copy-8" transform="translate(558.540411, 816.152543) rotate(-315.000000) translate(-558.540411, -816.152543) " x="547.825945" y="805.438077" width="21.4289322" height="21.4289322"></rect>
        <rect id="Rectangle-3-Copy-3" transform="translate(1401.152543, 769.152543) rotate(-315.000000) translate(-1401.152543, -769.152543) " x="1390.43808" y="758.438077" width="21.4289322" height="21.4289322"></rect>
        <rect id="Rectangle-3-Copy-4" transform="translate(1313.076272, 822.076272) rotate(-315.000000) translate(-1313.076272, -822.076272) " x="1286.15228" y="795.152282" width="53.8479797" height="53.8479797"></rect>
        <rect id="Rectangle-3-Copy-6" transform="translate(412.152543, 578.152543) rotate(-315.000000) translate(-412.152543, -578.152543) " x="401.438077" y="567.438077" width="21.4289322" height="21.4289322"></rect>
        <rect id="Rectangle-3-Copy-5" transform="translate(324.076272, 631.076272) rotate(-315.000000) translate(-324.076272, -631.076272) " x="297.152282" y="604.152282" width="53.8479797" height="53.8479797"></rect>
    </g>
</svg>