<?xml version="1.0" standalone="no"?>
<!DOCTYPE svg PUBLIC "-//W3C//DTD SVG 20010904//EN"
 "http://www.w3.org/TR/2001/REC-SVG-20010904/DTD/svg10.dtd">
<svg version="1.0" xmlns="http://www.w3.org/2000/svg"
 width="260.000000pt" height="260.000000pt" viewBox="0 0 260.000000 260.000000"
 preserveAspectRatio="xMidYMid meet">
<metadata>
Created by potrace 1.11, written by Peter Selinger 2001-2013
</metadata>
<g transform="translate(0.000000,260.000000) scale(0.100000,-0.100000)"
fill="#000000" stroke="none">
<path d="M0 1300 l0 -1300 1300 0 1300 0 0 1300 0 1300 -1300 0 -1300 0 0
-1300z m1059 223 c130 -288 238 -523 241 -523 3 0 109 235 236 523 l231 522
172 3 171 2 0 -750 0 -750 -150 0 -150 0 -2 434 -3 434 -176 -432 -177 -431
-152 0 -152 0 -177 431 -176 432 -3 -434 -2 -434 -150 0 -150 0 0 750 0 750
166 -2 167 -3 236 -522z"/>
</g>
</svg>
