<svg width="31" height="24" viewBox="0 0 31 24" fill="none" xmlns="http://www.w3.org/2000/svg">
<path fill-rule="evenodd" clip-rule="evenodd" d="M15.216 0.99994C14.768 1.20794 14.488 1.39994 14.376 1.57594C13.208 3.39994 12.208 5.00794 11.376 6.39994C10.752 7.47194 10.344 8.18394 10.152 8.53594L9.52799 9.61594C9.47999 9.21594 9.45599 8.59994 9.45599 7.76794C9.45599 7.33594 9.44799 7.04794 9.43199 6.90394L9.33599 5.77594C9.20799 4.33594 9.12799 3.25594 9.09599 2.53594C9.07999 2.11994 8.83999 1.91194 8.37599 1.91194C8.07199 1.91194 7.74399 1.99194 7.39199 2.15194C7.05599 2.31194 6.82399 2.47194 6.69599 2.63194C6.47199 2.90394 6.28799 3.20794 6.14399 3.54394C5.99999 3.87994 5.84799 4.31194 5.68799 4.83994L5.54399 5.34394C5.19199 6.43194 4.69599 8.06394 4.05599 10.2399L3.62399 11.7279C2.99999 13.8879 2.47199 15.6319 2.03999 16.9599C1.60799 18.2719 1.10399 19.5679 0.527994 20.8479C0.479994 20.9439 0.455994 21.0319 0.455994 21.1119C0.455994 21.2559 0.519994 21.3679 0.647994 21.4479C0.775994 21.5119 0.943994 21.5439 1.15199 21.5439C1.51999 21.5439 1.90399 21.4559 2.30399 21.2799C2.71999 21.1039 2.97599 20.9039 3.07199 20.6799C3.63199 19.4639 4.11999 18.2239 4.53599 16.9599C4.96799 15.6799 5.46399 14.0719 6.02399 12.1359L6.47999 10.5759C6.63999 9.98394 6.79199 9.46394 6.93599 9.01594L7.00799 10.1679C7.05599 10.8879 7.20799 11.4639 7.46399 11.8959C7.71999 12.3119 8.11999 12.5199 8.66399 12.5199C8.93599 12.5199 9.22399 12.4719 9.52799 12.3759C10.168 12.1679 10.696 11.7839 11.112 11.2239C11.528 10.6639 11.976 9.89594 12.456 8.91994C12.776 8.27994 12.984 7.87994 13.08 7.71994C13.08 7.70394 13.096 7.67994 13.128 7.64794C12.536 10.2079 12.112 12.3039 11.856 13.9359C11.664 15.0559 11.52 15.9759 11.424 16.6959C11.344 17.4159 11.304 18.1599 11.304 18.9279C11.304 20.8639 11.728 22.3599 12.576 23.4159C12.704 23.5919 12.936 23.6799 13.272 23.6799C13.672 23.6799 14.072 23.5519 14.472 23.2959C14.888 23.0559 15.096 22.7839 15.096 22.4799C15.096 22.3519 15.048 22.2239 14.952 22.0959C14.232 21.1999 13.872 19.8959 13.872 18.1839C13.872 17.4639 13.92 16.7279 14.016 15.9759C14.128 15.2239 14.272 14.3839 14.448 13.4559L14.616 12.5199C14.84 11.2559 15.224 9.37594 15.768 6.87994C15.832 6.55994 15.992 5.80794 16.248 4.62394C16.52 3.42394 16.744 2.30394 16.92 1.26394C16.984 0.863941 16.808 0.66394 16.392 0.66394C16.072 0.66394 15.68 0.77594 15.216 0.99994ZM30.0137 15.616C30.0137 14.688 29.5097 13.784 28.5017 12.904C28.0057 12.456 27.4697 12.072 26.8937 11.752C26.3337 11.432 25.5897 11.04 24.6617 10.576C24.5177 10.496 24.1097 10.288 23.4377 9.95197C22.7817 9.61598 22.1817 9.25598 21.6377 8.87197C20.8857 8.32798 20.5097 7.67998 20.5097 6.92798C20.5097 6.49598 20.6377 6.07198 20.8937 5.65597C21.1657 5.22398 21.5417 4.84798 22.0217 4.52798C23.2217 3.67998 24.8297 3.27198 26.8457 3.30398L26.6777 4.31198C26.6137 4.53597 26.5017 4.87197 26.3417 5.31997L25.9817 6.35198C25.9657 6.39998 25.9577 6.46397 25.9577 6.54397C25.9577 6.84798 26.1657 7.11998 26.5817 7.35998C26.9977 7.59998 27.4217 7.71998 27.8537 7.71998C28.2857 7.71998 28.5497 7.58398 28.6457 7.31198C28.6777 7.21598 28.7817 6.95198 28.9577 6.51998C29.1977 5.87997 29.3737 5.37598 29.4857 5.00798C29.6137 4.62398 29.6777 4.23997 29.6777 3.85598C29.6777 3.21597 29.4617 2.71997 29.0297 2.36798C28.6457 2.04798 28.1657 1.83997 27.5897 1.74398C27.0137 1.64798 26.3417 1.59998 25.5737 1.59998C23.8137 1.59998 22.1737 1.91998 20.6537 2.55997C19.1497 3.18398 18.2057 4.21598 17.8217 5.65597C17.7417 5.91198 17.7017 6.20798 17.7017 6.54397C17.7017 7.27997 17.9577 7.94397 18.4697 8.53597C18.9817 9.11197 19.5897 9.61598 20.2937 10.048C21.0137 10.464 21.9657 10.952 23.1497 11.512C24.1097 11.96 24.8777 12.352 25.4537 12.688C26.0457 13.024 26.5017 13.376 26.8217 13.744C27.1417 14.128 27.3017 14.552 27.3017 15.016C27.3017 15.592 27.0697 16.184 26.6057 16.792C26.1577 17.4 25.6057 17.944 24.9497 18.424C24.3097 18.904 23.7257 19.248 23.1977 19.456C22.5097 19.728 21.8457 19.864 21.2057 19.864C20.5657 19.864 20.0457 19.72 19.6457 19.432C19.2457 19.144 19.0457 18.584 19.0457 17.752C19.0457 17.384 19.0777 16.984 19.1417 16.552C19.2057 16.104 19.2457 15.816 19.2617 15.688C19.3097 15.336 19.1017 15.016 18.6377 14.728C18.1737 14.44 17.7177 14.296 17.2697 14.296C16.8697 14.296 16.6457 14.432 16.5977 14.704C16.4697 15.728 16.4057 16.512 16.4057 17.056C16.4057 17.824 16.5337 18.488 16.7897 19.048C17.0457 19.608 17.5017 20.064 18.1577 20.416C19.5337 21.168 20.9737 21.544 22.4777 21.544C23.1177 21.544 23.6937 21.48 24.2057 21.352C26.1897 20.856 27.9177 19.552 29.3897 17.44C29.8057 16.832 30.0137 16.224 30.0137 15.616Z" fill="white"/>
</svg>
