<svg version="1.1" id="Layer_1" xmlns="http://www.w3.org/2000/svg" xmlns:xlink="http://www.w3.org/1999/xlink" x="0px" y="0px"
	 width="100%" viewBox="0 0 2048 2048" enable-background="new 0 0 2048 2048" xml:space="preserve">
<path fill="transparent" stroke="none" 
	d="
M1316.000000,2050.000000 
	C877.386230,2050.000000 439.772461,2050.000000 2.079357,2050.000000 
	C2.079357,1367.468750 2.079357,684.937500 2.079357,2.203136 
	C695.114014,2.203136 1388.228149,2.203136 2081.671143,2.203136 
	C2081.671143,684.666565 2081.671143,1367.333252 2081.671143,2050.000000 
	C1826.936890,2050.000000 1571.968384,2050.000000 1316.000000,2050.000000 
M1180.906494,400.070801 
	C1165.231567,392.029541 1150.157349,382.389893 1133.774170,376.233307 
	C1073.881470,353.726318 1015.525024,358.427673 959.492065,389.446655 
	C818.515320,467.489136 677.362671,545.217773 536.725037,623.867065 
	C456.875000,668.521973 415.986084,738.500671 415.134857,829.197571 
	C413.586517,994.168884 414.172424,1159.166870 414.888306,1324.149292 
	C415.137909,1381.671997 441.665497,1425.673950 491.660767,1454.522827 
	C529.724365,1476.486694 568.341431,1497.491333 606.733521,1518.884644 
	C608.868347,1520.074219 611.197327,1520.915161 614.161072,1522.243408 
	C614.161072,1517.415649 614.160950,1513.759521 614.161133,1510.103271 
	C614.168701,1326.119141 614.211243,1142.135010 614.136780,958.150879 
	C614.128113,936.744629 615.713196,915.497986 620.208679,894.605591 
	C637.727295,813.190674 679.861755,749.578186 754.356445,709.188416 
	C821.960083,672.534912 889.299744,635.394470 956.755371,598.468018 
	C988.294128,581.203125 1019.804871,563.886841 1051.383667,546.695435 
	C1063.488037,540.105835 1074.796997,540.760559 1084.027222,548.622253 
	C1093.849609,556.988525 1097.056641,567.722839 1093.870361,580.139160 
	C1091.294800,590.175659 1084.282959,596.375916 1075.365723,601.210327 
	C980.250488,652.776489 885.199280,704.460754 790.155151,756.157837 
	C740.987732,782.901428 706.697632,822.614685 687.167053,875.025696 
	C676.317261,904.141357 673.139221,934.429871 673.155151,965.321655 
	C673.254761,1158.971191 673.160767,1352.620728 673.130920,1546.270264 
	C673.130493,1549.224609 673.130859,1552.179077 673.130859,1555.034912 
	C740.359680,1592.312988 806.888062,1629.202637 874.515015,1666.701416 
	C874.515015,1661.679932 874.515320,1658.364258 874.514893,1655.048462 
	C874.489624,1462.731812 874.376221,1270.415039 874.589539,1078.098633 
	C874.608704,1060.834839 875.647949,1043.416992 878.090698,1026.339111 
	C886.738281,965.881165 913.717834,914.591919 957.551636,872.120178 
	C979.352600,850.996704 1005.309021,836.054810 1031.983276,822.230347 
	C1123.005859,775.055969 1214.069336,727.960510 1305.120239,680.840332 
	C1306.893433,679.922668 1308.656982,678.964844 1310.499023,678.205444 
	C1323.675171,672.773682 1337.822876,677.271790 1345.424683,689.263123 
	C1354.348145,703.339355 1350.424438,722.284302 1336.420044,731.648743 
	C1332.565918,734.225891 1328.267822,736.151184 1324.127686,738.286560 
	C1232.126221,785.739746 1139.655273,832.309509 1048.256958,880.896912 
	C974.043884,920.348755 934.509216,983.704163 934.056152,1067.846069 
	C932.938049,1275.488892 933.613892,1483.141357 933.589966,1690.790039 
	C933.589661,1693.713501 933.866882,1696.637085 934.014648,1699.562012 
	C951.861755,1709.539429 969.347107,1719.190796 986.713196,1729.052124 
	C1013.617249,1744.329712 1042.532593,1750.372192 1073.225952,1747.821533 
	C1085.752930,1746.780518 1098.278198,1745.168823 1110.138672,1739.047363 
	C1110.138672,1734.863159 1110.139404,1730.888306 1110.138550,1726.913452 
	C1110.127563,1671.918213 1109.519653,1616.914673 1110.286499,1561.930298 
	C1110.945068,1514.701782 1130.483887,1476.314575 1168.798950,1448.196533 
	C1177.345703,1441.924438 1186.768677,1436.763550 1196.092773,1431.646362 
	C1315.165283,1366.295044 1434.291260,1301.041504 1553.418335,1235.789917 
	C1556.326050,1234.197144 1559.297974,1232.609985 1562.416992,1231.532837 
	C1580.427490,1225.313232 1598.211548,1236.622559 1600.397827,1255.559692 
	C1602.138062,1270.633911 1595.931763,1280.750488 1579.711548,1289.635376 
	C1458.542114,1356.009644 1337.365967,1422.371948 1216.237305,1488.820679 
	C1185.123901,1505.888916 1169.553833,1532.226196 1169.671875,1567.870972 
	C1169.821045,1612.866577 1169.735596,1657.863037 1169.751343,1702.859131 
	C1169.752075,1705.000122 1169.751465,1707.140991 1169.751465,1710.526611 
	C1172.577393,1709.072876 1174.010010,1708.388428 1175.393677,1707.616455 
	C1326.575562,1623.264038 1477.943115,1539.241333 1628.825562,1454.356445 
	C1678.816650,1426.231934 1704.096558,1381.812256 1704.344849,1324.502441 
	C1704.880615,1200.848877 1704.553223,1077.191284 1704.552490,953.535400 
	C1704.552490,951.048340 1704.231567,948.561279 1703.976318,944.852966 
	C1700.675903,946.678345 1698.418945,947.891846 1696.194092,949.161865 
	C1560.875000,1026.413452 1425.563477,1103.678711 1290.216431,1180.881592 
	C1286.197632,1183.173828 1281.960693,1185.314575 1277.561401,1186.666138 
	C1264.257812,1190.753296 1249.476196,1184.098633 1242.967773,1171.507812 
	C1236.359131,1158.723022 1239.773560,1143.538086 1251.440308,1134.904419 
	C1254.902466,1132.342407 1258.768311,1130.308105 1262.524536,1128.163696 
	C1407.676880,1045.302612 1552.839111,962.458923 1697.985962,879.588257 
	C1700.231201,878.306458 1702.299805,876.715088 1705.401367,874.628662 
	C1704.381714,848.506531 1705.392700,821.965881 1701.947144,796.016846 
	C1691.785278,719.486877 1653.177856,660.613953 1585.494507,622.944336 
	C1451.387573,548.306213 1316.673828,474.758759 1180.906494,400.070801 
z"/>
<path fill="currentColor" opacity="1.000000" stroke="none" 
	d="
M1181.558594,400.415649 
	C1316.673828,474.758759 1451.387573,548.306213 1585.494507,622.944336 
	C1653.177856,660.613953 1691.785278,719.486877 1701.947144,796.016846 
	C1705.392700,821.965881 1704.381714,848.506531 1705.401367,874.628662 
	C1702.299805,876.715088 1700.231201,878.306458 1697.985962,879.588257 
	C1552.839111,962.458923 1407.676880,1045.302612 1262.524536,1128.163696 
	C1258.768311,1130.308105 1254.902466,1132.342407 1251.440308,1134.904419 
	C1239.773560,1143.538086 1236.359131,1158.723022 1242.967773,1171.507812 
	C1249.476196,1184.098633 1264.257812,1190.753296 1277.561401,1186.666138 
	C1281.960693,1185.314575 1286.197632,1183.173828 1290.216431,1180.881592 
	C1425.563477,1103.678711 1560.875000,1026.413452 1696.194092,949.161865 
	C1698.418945,947.891846 1700.675903,946.678345 1703.976318,944.852966 
	C1704.231567,948.561279 1704.552490,951.048340 1704.552490,953.535400 
	C1704.553223,1077.191284 1704.880615,1200.848877 1704.344849,1324.502441 
	C1704.096558,1381.812256 1678.816650,1426.231934 1628.825562,1454.356445 
	C1477.943115,1539.241333 1326.575562,1623.264038 1175.393677,1707.616455 
	C1174.010010,1708.388428 1172.577393,1709.072876 1169.751465,1710.526611 
	C1169.751465,1707.140991 1169.752075,1705.000122 1169.751343,1702.859131 
	C1169.735596,1657.863037 1169.821045,1612.866577 1169.671875,1567.870972 
	C1169.553833,1532.226196 1185.123901,1505.888916 1216.237305,1488.820679 
	C1337.365967,1422.371948 1458.542114,1356.009644 1579.711548,1289.635376 
	C1595.931763,1280.750488 1602.138062,1270.633911 1600.397827,1255.559692 
	C1598.211548,1236.622559 1580.427490,1225.313232 1562.416992,1231.532837 
	C1559.297974,1232.609985 1556.326050,1234.197144 1553.418335,1235.789917 
	C1434.291260,1301.041504 1315.165283,1366.295044 1196.092773,1431.646362 
	C1186.768677,1436.763550 1177.345703,1441.924438 1168.798950,1448.196533 
	C1130.483887,1476.314575 1110.945068,1514.701782 1110.286499,1561.930298 
	C1109.519653,1616.914673 1110.127563,1671.918213 1110.138550,1726.913452 
	C1110.139404,1730.888306 1110.138672,1734.863159 1110.138672,1739.047363 
	C1098.278198,1745.168823 1085.752930,1746.780518 1073.225952,1747.821533 
	C1042.532593,1750.372192 1013.617249,1744.329712 986.713196,1729.052124 
	C969.347107,1719.190796 951.861755,1709.539429 934.014648,1699.562012 
	C933.866882,1696.637085 933.589661,1693.713501 933.589966,1690.790039 
	C933.613892,1483.141357 932.938049,1275.488892 934.056152,1067.846069 
	C934.509216,983.704163 974.043884,920.348755 1048.256958,880.896912 
	C1139.655273,832.309509 1232.126221,785.739746 1324.127686,738.286560 
	C1328.267822,736.151184 1332.565918,734.225891 1336.420044,731.648743 
	C1350.424438,722.284302 1354.348145,703.339355 1345.424683,689.263123 
	C1337.822876,677.271790 1323.675171,672.773682 1310.499023,678.205444 
	C1308.656982,678.964844 1306.893433,679.922668 1305.120239,680.840332 
	C1214.069336,727.960510 1123.005859,775.055969 1031.983276,822.230347 
	C1005.309021,836.054810 979.352600,850.996704 957.551636,872.120178 
	C913.717834,914.591919 886.738281,965.881165 878.090698,1026.339111 
	C875.647949,1043.416992 874.608704,1060.834839 874.589539,1078.098633 
	C874.376221,1270.415039 874.489624,1462.731812 874.514893,1655.048462 
	C874.515320,1658.364258 874.515015,1661.679932 874.515015,1666.701416 
	C806.888062,1629.202637 740.359680,1592.312988 673.130859,1555.034912 
	C673.130859,1552.179077 673.130493,1549.224609 673.130920,1546.270264 
	C673.160767,1352.620728 673.254761,1158.971191 673.155151,965.321655 
	C673.139221,934.429871 676.317261,904.141357 687.167053,875.025696 
	C706.697632,822.614685 740.987732,782.901428 790.155151,756.157837 
	C885.199280,704.460754 980.250488,652.776489 1075.365723,601.210327 
	C1084.282959,596.375916 1091.294800,590.175659 1093.870361,580.139160 
	C1097.056641,567.722839 1093.849609,556.988525 1084.027222,548.622253 
	C1074.796997,540.760559 1063.488037,540.105835 1051.383667,546.695435 
	C1019.804871,563.886841 988.294128,581.203125 956.755371,598.468018 
	C889.299744,635.394470 821.960083,672.534912 754.356445,709.188416 
	C679.861755,749.578186 637.727295,813.190674 620.208679,894.605591 
	C615.713196,915.497986 614.128113,936.744629 614.136780,958.150879 
	C614.211243,1142.135010 614.168701,1326.119141 614.161133,1510.103271 
	C614.160950,1513.759521 614.161072,1517.415649 614.161072,1522.243408 
	C611.197327,1520.915161 608.868347,1520.074219 606.733521,1518.884644 
	C568.341431,1497.491333 529.724365,1476.486694 491.660767,1454.522827 
	C441.665497,1425.673950 415.137909,1381.671997 414.888306,1324.149292 
	C414.172424,1159.166870 413.586517,994.168884 415.134857,829.197571 
	C415.986084,738.500671 456.875000,668.521973 536.725037,623.867065 
	C677.362671,545.217773 818.515320,467.489136 959.492065,389.446655 
	C1015.525024,358.427673 1073.881470,353.726318 1133.774170,376.233307 
	C1150.157349,382.389893 1165.231567,392.029541 1181.558594,400.415649 
z"/>
</svg>